<svg width="24" height="20" viewBox="0 0 24 20" fill="none" xmlns="http://www.w3.org/2000/svg">
<path d="M0 10.1965C0 10.8638 0.255205 11.4906 0.727177 11.9626L7.64816 18.8868C8.16978 19.4084 9.01548 19.4084 9.53604 18.8868C10.0582 18.3652 10.0571 17.5157 9.53604 16.9936L3.89055 11.3502L22.6738 11.3502C23.4116 11.3497 24 10.7448 24 10.0064C24 10.0048 24 9.99304 24 9.99144C24 9.25359 23.4116 8.64441 22.6738 8.64441L3.89002 8.64441L9.53444 3.00426C10.0566 2.4821 10.0566 1.63533 9.53444 1.11371C9.01281 0.591017 8.16711 0.591551 7.64549 1.11424L0.727177 8.03896C0.254671 8.50986 0 9.13827 0 9.80564C0 9.87131 0 10.1308 0 10.1965Z"/>
</svg>
